<?xml version="1.0" standalone="no"?>
<!DOCTYPE svg PUBLIC "-//W3C//DTD SVG 20010904//EN"
 "http://www.w3.org/TR/2001/REC-SVG-20010904/DTD/svg10.dtd">
<svg version="1.0" xmlns="http://www.w3.org/2000/svg"
 width="170.000000pt" height="170.000000pt" viewBox="0 0 170.000000 170.000000"
 preserveAspectRatio="xMidYMid meet">
<metadata>
Created by potrace 1.14, written by Peter Selinger 2001-2017
</metadata>
<g transform="translate(0.000000,170.000000) scale(0.100000,-0.100000)"
fill="#000000" stroke="none">
<path d="M0 850 l0 -850 850 0 850 0 0 850 0 850 -850 0 -850 0 0 -850z m965
201 l40 -7 -68 -13 c-91 -16 -148 -39 -275 -113 -168 -97 -210 -112 -322 -112
-67 -1 -105 4 -130 15 l-35 16 71 -5 c97 -6 154 12 354 115 194 99 273 122
365 104z m372 -93 c118 -42 240 -134 288 -218 5 -8 -14 2 -42 23 -158 116
-396 157 -563 99 -30 -11 -125 -55 -210 -99 -173 -88 -240 -108 -365 -106
-124 1 -270 48 -345 112 l-25 21 60 -20 c127 -43 300 -43 430 0 34 11 104 45
156 76 213 125 276 145 434 141 86 -3 126 -9 182 -29z m-22 -152 c52 -13 145
-52 145 -59 0 -2 -26 2 -57 10 -88 21 -293 27 -385 11 -43 -8 -78 -13 -78 -11
0 6 71 35 120 49 60 16 193 17 255 0z"/>
</g>
</svg>
